<svg width="18" height="18" viewBox="0 0 18 18" fill="none" xmlns="http://www.w3.org/2000/svg">
<path d="M3.02296 16.0122C2.75774 16.0126 2.50323 15.9077 2.31541 15.7206C2.12758 15.5335 2.02184 15.2794 2.02143 15.0143L2.00305 3.02125C2.00264 2.75619 2.10761 2.50182 2.29486 2.3141C2.48211 2.12639 2.7363 2.0207 3.00152 2.02029L15.0015 2.00192C15.2667 2.00152 15.5212 2.10642 15.7091 2.29357C15.8969 2.48071 16.0026 2.73475 16.003 2.99982L16.0214 14.9929C16.0218 15.258 15.9169 15.5123 15.7296 15.7001C15.5424 15.8878 15.2882 15.9935 15.0229 15.9939L3.02296 16.0122ZM15.0245 16.9933C15.5549 16.9925 16.0633 16.7811 16.4378 16.4057C16.8123 16.0303 17.0222 15.5215 17.0214 14.9914L17.003 2.99829C17.0022 2.46816 16.7907 1.96007 16.4151 1.58578C16.0394 1.2115 15.5304 1.00169 15 1.0025L2.99998 1.02087C2.46955 1.02168 1.96117 1.23305 1.58667 1.60848C1.21217 1.98392 1.00224 2.49265 1.00305 3.02278L1.02143 15.0159C1.02224 15.546 1.23374 16.0541 1.60938 16.4284C1.98503 16.8027 2.49406 17.0125 3.02449 17.0117L15.0245 16.9933Z" fill="white"/>
<path d="M15.75 1.12435C16.0484 1.12435 16.3345 1.24281 16.5455 1.45367C16.7565 1.66453 16.875 1.95051 16.875 2.24871V15.741C16.875 16.0392 16.7565 16.3251 16.5455 16.536C16.3345 16.7469 16.0484 16.8653 15.75 16.8653H2.25C1.95163 16.8653 1.66548 16.7469 1.4545 16.536C1.24353 16.3251 1.125 16.0392 1.125 15.741V2.24871C1.125 1.95051 1.24353 1.66453 1.4545 1.45367C1.66548 1.24281 1.95163 1.12435 2.25 1.12435H15.75ZM2.25 0C1.65326 0 1.08097 0.236917 0.65901 0.658631C0.237053 1.08035 0 1.65231 0 2.24871L0 15.741C0 16.3374 0.237053 16.9093 0.65901 17.331C1.08097 17.7528 1.65326 17.9897 2.25 17.9897H15.75C16.3467 17.9897 16.919 17.7528 17.341 17.331C17.7629 16.9093 18 16.3374 18 15.741V2.24871C18 1.65231 17.7629 1.08035 17.341 0.658631C16.919 0.236917 16.3467 0 15.75 0L2.25 0Z" fill="white"/>
<path d="M10.7337 7.46981L8.15745 7.7925L8.0652 8.21975L8.57145 8.31307C8.9022 8.39178 8.96745 8.51096 8.89545 8.8404L8.0652 12.7397C7.84695 13.7482 8.18332 14.2227 8.9742 14.2227C9.58732 14.2227 10.2994 13.9393 10.6223 13.5503L10.7213 13.0826C10.4963 13.2805 10.1678 13.3592 9.94957 13.3592C9.6402 13.3592 9.5277 13.1422 9.60757 12.7599L10.7337 7.46981ZM10.8124 5.12216C10.8124 5.42035 10.6939 5.70634 10.4829 5.9172C10.272 6.12805 9.98582 6.24651 9.68745 6.24651C9.38908 6.24651 9.10293 6.12805 8.89195 5.9172C8.68097 5.70634 8.56245 5.42035 8.56245 5.12216C8.56245 4.82396 8.68097 4.53798 8.89195 4.32712C9.10293 4.11626 9.38908 3.9978 9.68745 3.9978C9.98582 3.9978 10.272 4.11626 10.4829 4.32712C10.6939 4.53798 10.8124 4.82396 10.8124 5.12216Z" fill="white"/>
<rect width="0.999881" height="2.86818" transform="matrix(0.890688 0.454614 -0.455029 0.890477 1.74554 0.334473)" fill="white"/>
<rect width="0.999881" height="2.86818" transform="matrix(0.890688 0.454614 -0.455029 0.890477 16.3051 14.9915)" fill="white"/>
<rect width="0.999801" height="2.86841" transform="matrix(0.808039 -0.589128 0.58957 0.807717 0 15.5803)" fill="white"/>
<rect width="1" height="2.24745" transform="matrix(0.746644 -0.665223 0.665649 0.746265 15.4139 1.12915)" fill="white"/>
</svg>
